<svg xmlns="http://www.w3.org/2000/svg" viewBox="0 0 121.03 62.48"><defs><style>.cls-1{isolation:isolate;}.cls-2{fill:#444;}.cls-3{fill:#fff;mix-blend-mode:screen;opacity:0.1;}.cls-4{fill:#aaa;}.cls-5{fill:#eee;}</style></defs><g class="cls-1"><g id="Layer_1" data-name="Layer 1"><path class="cls-2" d="M237.14,145.77H141.63a2,2,0,0,0-1.95,2v57.53h99.41V147.73A2,2,0,0,0,237.14,145.77ZM236,199.36H142.7v-50.5H236Z" transform="translate(-128.87 -145.77)"/><path class="cls-3" d="M239.09,205.26V147.73a2,2,0,0,0-2-2H167.33l35.35,59.49Z" transform="translate(-128.87 -145.77)"/><path class="cls-4" d="M129.58,204.13V206c0,.5,6.47,2.26,7.36,2.26H241.83c.89,0,7.36-1.76,7.36-2.26v-1.87Z" transform="translate(-128.87 -145.77)"/><path class="cls-5" d="M249.9,205.66c0,.51-.81.92-1.8.92H130.68c-1,0-1.81-.41-1.81-.92v-1.38c0-.5.81-.91,1.81-.91H248.1c1,0,1.8.41,1.8.91Z" transform="translate(-128.87 -145.77)"/><path class="cls-4" d="M176.69,203.37v.68a.72.72,0,0,0,.72.72h24a.72.72,0,0,0,.72-.72v-.68Z" transform="translate(-128.87 -145.77)"/></g></g></svg>